M48
; DRILL file {KiCad 9.0.2} date 2026-06-07T22:22:29-0400
; FORMAT={-:-/ absolute / metric / decimal}
; #@! TF.CreationDate,2026-06-07T22:22:29-04:00
; #@! TF.GenerationSoftware,Kicad,Pcbnew,9.0.2
; #@! TF.FileFunction,NonPlated,1,2,NPTH
FMAT,2
METRIC
; #@! TA.AperFunction,NonPlated,NPTH,ComponentDrill
T1C1.500
; #@! TA.AperFunction,NonPlated,NPTH,ComponentDrill
T2C3.000
; #@! TA.AperFunction,NonPlated,NPTH,ComponentDrill
T3C5.100
%
G90
G05
T2
X33.1Y-41.9
X35.481Y-118.1
X37.862Y-60.95
X38.1Y-44.1
X40.244Y-80.0
X40.481Y-120.3
X42.862Y-63.15
X45.006Y-99.05
X45.244Y-82.2
X50.006Y-101.25
X52.15Y-41.9
X57.15Y-44.1
X59.294Y-118.1
X61.675Y-60.95
X64.294Y-120.3
X66.438Y-80.0
X66.675Y-63.15
X71.2Y-41.9
X71.438Y-82.2
X75.962Y-99.05
X76.2Y-44.1
X80.725Y-60.95
X80.962Y-101.25
X83.106Y-118.1
X85.487Y-80.0
X85.725Y-63.15
X88.106Y-120.3
X90.25Y-41.9
X90.487Y-82.2
X95.012Y-99.05
X95.25Y-44.1
X99.775Y-60.95
X100.012Y-101.25
X104.5Y-118.05
X104.537Y-80.0
X104.775Y-63.15
X109.3Y-41.9
X109.5Y-120.25
X109.537Y-82.2
X114.062Y-99.05
X114.3Y-44.1
X118.825Y-60.95
X119.062Y-101.25
X123.587Y-80.0
X123.825Y-63.15
X128.35Y-41.9
X128.588Y-82.2
X133.112Y-99.05
X133.35Y-44.1
X137.875Y-60.95
X138.112Y-101.25
X142.637Y-80.0
X142.875Y-63.15
X147.4Y-41.9
X147.637Y-82.2
X152.162Y-99.05
X152.4Y-44.1
X154.544Y-118.1
X156.925Y-60.95
X157.162Y-101.25
X159.544Y-120.3
X161.688Y-80.0
X161.925Y-63.15
X166.45Y-41.9
X166.688Y-82.2
X171.213Y-99.05
X171.45Y-44.1
X175.975Y-60.95
X176.213Y-101.25
X180.737Y-80.0
X180.975Y-63.15
X185.5Y-41.9
X185.737Y-82.2
X190.262Y-99.05
X190.5Y-44.1
X195.025Y-60.95
X195.262Y-101.25
X199.787Y-80.0
X200.025Y-63.15
X204.5Y-118.05
X204.55Y-41.9
X204.787Y-82.2
X209.312Y-99.05
X209.5Y-120.25
X209.55Y-44.1
X214.075Y-60.95
X214.312Y-101.25
X218.837Y-80.0
X219.075Y-63.15
X223.6Y-41.9
X223.6Y-118.1
X223.837Y-82.2
X228.362Y-99.05
X228.6Y-44.1
X228.6Y-120.3
X233.125Y-60.95
X233.362Y-101.25
X237.887Y-80.0
X238.125Y-63.15
X242.65Y-41.9
X242.65Y-118.1
X242.887Y-82.2
X247.412Y-99.05
X247.65Y-44.1
X247.65Y-120.3
X252.175Y-60.95
X252.412Y-101.25
X256.938Y-80.0
X257.175Y-63.15
X261.7Y-41.9
X261.7Y-118.1
X261.938Y-82.2
X266.7Y-44.1
X266.7Y-120.3
X271.225Y-60.95
X273.606Y-99.05
X276.225Y-63.15
X278.606Y-101.25
X280.75Y-118.1
X285.75Y-120.3
X287.894Y-80.0
X290.275Y-41.9
X292.894Y-82.2
X295.037Y-60.95
X295.275Y-44.1
X299.8Y-99.05
X299.8Y-118.1
X300.037Y-63.15
X304.8Y-101.25
X304.8Y-120.3
X318.85Y-41.9
X318.85Y-60.95
X318.85Y-80.0
X318.85Y-99.05
X318.85Y-118.1
X323.85Y-44.1
X323.85Y-63.15
X323.85Y-82.2
X323.85Y-101.25
X323.85Y-120.3
T3
X38.1Y-38.1
X40.481Y-114.3
X42.862Y-57.15
X45.244Y-76.2
X50.006Y-95.25
X57.15Y-38.1
X64.294Y-114.3
X66.675Y-57.15
X71.438Y-76.2
X76.2Y-38.1
X80.962Y-95.25
X85.725Y-57.15
X88.106Y-114.3
X90.487Y-76.2
X95.25Y-38.1
X100.012Y-95.25
X104.775Y-57.15
X109.5Y-114.25
X109.537Y-76.2
X114.3Y-38.1
X119.062Y-95.25
X123.825Y-57.15
X128.588Y-76.2
X133.35Y-38.1
X138.112Y-95.25
X142.875Y-57.15
X147.637Y-76.2
X152.4Y-38.1
X157.162Y-95.25
X159.544Y-114.3
X161.925Y-57.15
X166.688Y-76.2
X171.45Y-38.1
X176.213Y-95.25
X180.975Y-57.15
X185.737Y-76.2
X190.5Y-38.1
X195.262Y-95.25
X200.025Y-57.15
X204.787Y-76.2
X209.5Y-114.25
X209.55Y-38.1
X214.312Y-95.25
X219.075Y-57.15
X223.837Y-76.2
X228.6Y-38.1
X228.6Y-114.3
X233.362Y-95.25
X238.125Y-57.15
X242.887Y-76.2
X247.65Y-38.1
X247.65Y-114.3
X252.412Y-95.25
X257.175Y-57.15
X261.938Y-76.2
X266.7Y-38.1
X266.7Y-114.3
X276.225Y-57.15
X278.606Y-95.25
X285.75Y-114.3
X292.894Y-76.2
X295.275Y-38.1
X300.037Y-57.15
X304.8Y-95.25
X304.8Y-114.3
X323.85Y-38.1
X323.85Y-57.15
X323.85Y-76.2
X323.85Y-95.25
X323.85Y-114.3
T1
G00X43.1Y-33.2
M15
G01X43.1Y-32.7
M16
G05
G00X45.481Y-109.4
M15
G01X45.481Y-108.9
M16
G05
G00X47.862Y-52.25
M15
G01X47.862Y-51.75
M16
G05
G00X50.244Y-71.3
M15
G01X50.244Y-70.8
M16
G05
G00X55.006Y-90.35
M15
G01X55.006Y-89.85
M16
G05
G00X62.15Y-33.2
M15
G01X62.15Y-32.7
M16
G05
G00X69.294Y-109.4
M15
G01X69.294Y-108.9
M16
G05
G00X71.675Y-52.25
M15
G01X71.675Y-51.75
M16
G05
G00X76.438Y-71.3
M15
G01X76.438Y-70.8
M16
G05
G00X81.2Y-33.2
M15
G01X81.2Y-32.7
M16
G05
G00X85.962Y-90.35
M15
G01X85.962Y-89.85
M16
G05
G00X90.725Y-52.25
M15
G01X90.725Y-51.75
M16
G05
G00X93.106Y-109.4
M15
G01X93.106Y-108.9
M16
G05
G00X95.487Y-71.3
M15
G01X95.487Y-70.8
M16
G05
G00X100.25Y-33.2
M15
G01X100.25Y-32.7
M16
G05
G00X105.012Y-90.35
M15
G01X105.012Y-89.85
M16
G05
G00X109.775Y-52.25
M15
G01X109.775Y-51.75
M16
G05
G00X114.5Y-109.35
M15
G01X114.5Y-108.85
M16
G05
G00X114.537Y-71.3
M15
G01X114.537Y-70.8
M16
G05
G00X119.3Y-33.2
M15
G01X119.3Y-32.7
M16
G05
G00X124.062Y-90.35
M15
G01X124.062Y-89.85
M16
G05
G00X128.825Y-52.25
M15
G01X128.825Y-51.75
M16
G05
G00X133.588Y-71.3
M15
G01X133.588Y-70.8
M16
G05
G00X138.35Y-33.2
M15
G01X138.35Y-32.7
M16
G05
G00X143.112Y-90.35
M15
G01X143.112Y-89.85
M16
G05
G00X147.875Y-52.25
M15
G01X147.875Y-51.75
M16
G05
G00X152.637Y-71.3
M15
G01X152.637Y-70.8
M16
G05
G00X157.4Y-33.2
M15
G01X157.4Y-32.7
M16
G05
G00X162.162Y-90.35
M15
G01X162.162Y-89.85
M16
G05
G00X164.544Y-109.4
M15
G01X164.544Y-108.9
M16
G05
G00X166.925Y-52.25
M15
G01X166.925Y-51.75
M16
G05
G00X171.688Y-71.3
M15
G01X171.688Y-70.8
M16
G05
G00X176.45Y-33.2
M15
G01X176.45Y-32.7
M16
G05
G00X181.213Y-90.35
M15
G01X181.213Y-89.85
M16
G05
G00X185.975Y-52.25
M15
G01X185.975Y-51.75
M16
G05
G00X190.737Y-71.3
M15
G01X190.737Y-70.8
M16
G05
G00X195.5Y-33.2
M15
G01X195.5Y-32.7
M16
G05
G00X200.262Y-90.35
M15
G01X200.262Y-89.85
M16
G05
G00X205.025Y-52.25
M15
G01X205.025Y-51.75
M16
G05
G00X209.787Y-71.3
M15
G01X209.787Y-70.8
M16
G05
G00X214.5Y-109.35
M15
G01X214.5Y-108.85
M16
G05
G00X214.55Y-33.2
M15
G01X214.55Y-32.7
M16
G05
G00X219.312Y-90.35
M15
G01X219.312Y-89.85
M16
G05
G00X224.075Y-52.25
M15
G01X224.075Y-51.75
M16
G05
G00X228.837Y-71.3
M15
G01X228.837Y-70.8
M16
G05
G00X233.6Y-33.2
M15
G01X233.6Y-32.7
M16
G05
G00X233.6Y-109.4
M15
G01X233.6Y-108.9
M16
G05
G00X238.362Y-90.35
M15
G01X238.362Y-89.85
M16
G05
G00X243.125Y-52.25
M15
G01X243.125Y-51.75
M16
G05
G00X247.887Y-71.3
M15
G01X247.887Y-70.8
M16
G05
G00X252.65Y-33.2
M15
G01X252.65Y-32.7
M16
G05
G00X252.65Y-109.4
M15
G01X252.65Y-108.9
M16
G05
G00X257.412Y-90.35
M15
G01X257.412Y-89.85
M16
G05
G00X262.175Y-52.25
M15
G01X262.175Y-51.75
M16
G05
G00X266.938Y-71.3
M15
G01X266.938Y-70.8
M16
G05
G00X271.7Y-33.2
M15
G01X271.7Y-32.7
M16
G05
G00X271.7Y-109.4
M15
G01X271.7Y-108.9
M16
G05
G00X281.225Y-52.25
M15
G01X281.225Y-51.75
M16
G05
G00X283.606Y-90.35
M15
G01X283.606Y-89.85
M16
G05
G00X290.75Y-109.4
M15
G01X290.75Y-108.9
M16
G05
G00X297.894Y-71.3
M15
G01X297.894Y-70.8
M16
G05
G00X300.275Y-33.2
M15
G01X300.275Y-32.7
M16
G05
G00X305.037Y-52.25
M15
G01X305.037Y-51.75
M16
G05
G00X309.8Y-90.35
M15
G01X309.8Y-89.85
M16
G05
G00X309.8Y-109.4
M15
G01X309.8Y-108.9
M16
G05
G00X328.85Y-33.2
M15
G01X328.85Y-32.7
M16
G05
G00X328.85Y-52.25
M15
G01X328.85Y-51.75
M16
G05
G00X328.85Y-71.3
M15
G01X328.85Y-70.8
M16
G05
G00X328.85Y-90.35
M15
G01X328.85Y-89.85
M16
G05
G00X328.85Y-109.4
M15
G01X328.85Y-108.9
M16
G05
M30
