%TF.GenerationSoftware,KiCad,Pcbnew,9.0.2*%
%TF.CreationDate,2026-06-07T22:22:31-04:00*%
%TF.ProjectId,Lilypad,4c696c79-7061-4642-9e6b-696361645f70,1*%
%TF.SameCoordinates,Original*%
%TF.FileFunction,Soldermask,Top*%
%TF.FilePolarity,Negative*%
%FSLAX46Y46*%
G04 Gerber Fmt 4.6, Leading zero omitted, Abs format (unit mm)*
G04 Created by KiCad (PCBNEW 9.0.2) date 2026-06-07 22:22:31*
%MOMM*%
%LPD*%
G01*
G04 APERTURE LIST*
G04 Aperture macros list*
%AMRoundRect*
0 Rectangle with rounded corners*
0 $1 Rounding radius*
0 $2 $3 $4 $5 $6 $7 $8 $9 X,Y pos of 4 corners*
0 Add a 4 corners polygon primitive as box body*
4,1,4,$2,$3,$4,$5,$6,$7,$8,$9,$2,$3,0*
0 Add four circle primitives for the rounded corners*
1,1,$1+$1,$2,$3*
1,1,$1+$1,$4,$5*
1,1,$1+$1,$6,$7*
1,1,$1+$1,$8,$9*
0 Add four rect primitives between the rounded corners*
20,1,$1+$1,$2,$3,$4,$5,0*
20,1,$1+$1,$4,$5,$6,$7,0*
20,1,$1+$1,$6,$7,$8,$9,0*
20,1,$1+$1,$8,$9,$2,$3,0*%
%AMFreePoly0*
4,1,37,0.603843,0.796157,0.639018,0.796157,0.711114,0.766294,0.766294,0.711114,0.796157,0.639018,0.796157,0.603843,0.800000,0.600000,0.800000,-0.600000,0.796157,-0.603843,0.796157,-0.639018,0.766294,-0.711114,0.711114,-0.766294,0.639018,-0.796157,0.603843,-0.796157,0.600000,-0.800000,0.000000,-0.800000,0.000000,-0.796148,-0.078414,-0.796148,-0.232228,-0.765552,-0.377117,-0.705537,
-0.507515,-0.618408,-0.618408,-0.507515,-0.705537,-0.377117,-0.765552,-0.232228,-0.796148,-0.078414,-0.796148,0.078414,-0.765552,0.232228,-0.705537,0.377117,-0.618408,0.507515,-0.507515,0.618408,-0.377117,0.705537,-0.232228,0.765552,-0.078414,0.796148,0.000000,0.796148,0.000000,0.800000,0.600000,0.800000,0.603843,0.796157,0.603843,0.796157,$1*%
%AMFreePoly1*
4,1,37,0.000000,0.796148,0.078414,0.796148,0.232228,0.765552,0.377117,0.705537,0.507515,0.618408,0.618408,0.507515,0.705537,0.377117,0.765552,0.232228,0.796148,0.078414,0.796148,-0.078414,0.765552,-0.232228,0.705537,-0.377117,0.618408,-0.507515,0.507515,-0.618408,0.377117,-0.705537,0.232228,-0.765552,0.078414,-0.796148,0.000000,-0.796148,0.000000,-0.800000,-0.600000,-0.800000,
-0.603843,-0.796157,-0.639018,-0.796157,-0.711114,-0.766294,-0.766294,-0.711114,-0.796157,-0.639018,-0.796157,-0.603843,-0.800000,-0.600000,-0.800000,0.600000,-0.796157,0.603843,-0.796157,0.639018,-0.766294,0.711114,-0.711114,0.766294,-0.639018,0.796157,-0.603843,0.796157,-0.600000,0.800000,0.000000,0.800000,0.000000,0.796148,0.000000,0.796148,$1*%
G04 Aperture macros list end*
%ADD10O,1.500000X2.000000*%
%ADD11C,3.000000*%
%ADD12C,5.000000*%
%ADD13C,0.800000*%
%ADD14C,6.400000*%
%ADD15RoundRect,0.200000X-0.600000X0.600000X-0.600000X-0.600000X0.600000X-0.600000X0.600000X0.600000X0*%
%ADD16C,1.600000*%
%ADD17FreePoly0,270.000000*%
%ADD18FreePoly1,270.000000*%
G04 APERTURE END LIST*
D10*
%TO.C,SW47*%
X214500000Y-109100000D03*
D11*
X209500000Y-120250000D03*
D12*
X209500000Y-114250000D03*
D11*
X204500000Y-118050000D03*
%TD*%
D10*
%TO.C,SW47*%
X114500000Y-109100000D03*
D11*
X109500000Y-120250000D03*
D12*
X109500000Y-114250000D03*
D11*
X104500000Y-118050000D03*
%TD*%
D10*
%TO.C,SW62*%
X164543750Y-109150000D03*
D11*
X159543750Y-120300000D03*
D12*
X159543750Y-114300000D03*
D11*
X154543750Y-118100000D03*
%TD*%
D13*
%TO.C,H6*%
X197600000Y-126250000D03*
X198302944Y-124552944D03*
X198302944Y-127947056D03*
X200000000Y-123850000D03*
D14*
X200000000Y-126250000D03*
D13*
X200000000Y-128650000D03*
X201697056Y-124552944D03*
X201697056Y-127947056D03*
X202400000Y-126250000D03*
%TD*%
%TO.C,H4*%
X121350000Y-28500000D03*
X122052944Y-26802944D03*
X122052944Y-30197056D03*
X123750000Y-26100000D03*
D14*
X123750000Y-28500000D03*
D13*
X123750000Y-30900000D03*
X125447056Y-26802944D03*
X125447056Y-30197056D03*
X126150000Y-28500000D03*
%TD*%
%TO.C,H5*%
X197600000Y-28500000D03*
X198302944Y-26802944D03*
X198302944Y-30197056D03*
X200000000Y-26100000D03*
D14*
X200000000Y-28500000D03*
D13*
X200000000Y-30900000D03*
X201697056Y-26802944D03*
X201697056Y-30197056D03*
X202400000Y-28500000D03*
%TD*%
%TO.C,H1*%
X26350000Y-55000000D03*
X27052944Y-53302944D03*
X27052944Y-56697056D03*
X28750000Y-52600000D03*
D14*
X28750000Y-55000000D03*
D13*
X28750000Y-57400000D03*
X30447056Y-53302944D03*
X30447056Y-56697056D03*
X31150000Y-55000000D03*
%TD*%
%TO.C,H7*%
X333600000Y-28500000D03*
X334302944Y-26802944D03*
X334302944Y-30197056D03*
X336000000Y-26100000D03*
D14*
X336000000Y-28500000D03*
D13*
X336000000Y-30900000D03*
X337697056Y-26802944D03*
X337697056Y-30197056D03*
X338400000Y-28500000D03*
%TD*%
%TO.C,H2*%
X26297056Y-126250000D03*
X27000000Y-124552944D03*
X27000000Y-127947056D03*
X28697056Y-123850000D03*
D14*
X28697056Y-126250000D03*
D13*
X28697056Y-128650000D03*
X30394112Y-124552944D03*
X30394112Y-127947056D03*
X31097056Y-126250000D03*
%TD*%
%TO.C,H3*%
X121350000Y-126250000D03*
X122052944Y-124552944D03*
X122052944Y-127947056D03*
X123750000Y-123850000D03*
D14*
X123750000Y-126250000D03*
D13*
X123750000Y-128650000D03*
X125447056Y-124552944D03*
X125447056Y-127947056D03*
X126150000Y-126250000D03*
%TD*%
%TO.C,H8*%
X333600000Y-126250000D03*
X334302944Y-124552944D03*
X334302944Y-127947056D03*
X336000000Y-123850000D03*
D14*
X336000000Y-126250000D03*
D13*
X336000000Y-128650000D03*
X337697056Y-124552944D03*
X337697056Y-127947056D03*
X338400000Y-126250000D03*
%TD*%
D11*
%TO.C,SW61*%
X83106250Y-118100000D03*
D12*
X88106250Y-114300000D03*
D11*
X88106250Y-120300000D03*
D10*
X93106250Y-109150000D03*
%TD*%
D11*
%TO.C,SW40*%
X218837500Y-80000000D03*
D12*
X223837500Y-76200000D03*
D11*
X223837500Y-82200000D03*
D10*
X228837500Y-71050000D03*
%TD*%
D11*
%TO.C,SW1*%
X33100000Y-41900000D03*
D12*
X38100000Y-38100000D03*
D11*
X38100000Y-44100000D03*
D10*
X43100000Y-32950000D03*
%TD*%
D11*
%TO.C,SW3*%
X71200000Y-41900000D03*
D12*
X76200000Y-38100000D03*
D11*
X76200000Y-44100000D03*
D10*
X81200000Y-32950000D03*
%TD*%
D11*
%TO.C,SW35*%
X123587500Y-80000000D03*
D12*
X128587500Y-76200000D03*
D11*
X128587500Y-82200000D03*
D10*
X133587500Y-71050000D03*
%TD*%
D11*
%TO.C,SW21*%
X137875000Y-60950000D03*
D12*
X142875000Y-57150000D03*
D11*
X142875000Y-63150000D03*
D10*
X147875000Y-52000000D03*
%TD*%
D11*
%TO.C,SW33*%
X85487500Y-80000000D03*
D12*
X90487500Y-76200000D03*
D11*
X90487500Y-82200000D03*
D10*
X95487500Y-71050000D03*
%TD*%
D11*
%TO.C,SW60*%
X59293750Y-118100000D03*
D12*
X64293750Y-114300000D03*
D11*
X64293750Y-120300000D03*
D10*
X69293750Y-109150000D03*
%TD*%
D11*
%TO.C,SW28*%
X271225000Y-60950000D03*
D12*
X276225000Y-57150000D03*
D11*
X276225000Y-63150000D03*
D10*
X281225000Y-52000000D03*
%TD*%
D11*
%TO.C,SW58*%
X318850000Y-99050000D03*
D12*
X323850000Y-95250000D03*
D11*
X323850000Y-101250000D03*
D10*
X328850000Y-90100000D03*
%TD*%
D11*
%TO.C,SW12*%
X242650000Y-41900000D03*
D12*
X247650000Y-38100000D03*
D11*
X247650000Y-44100000D03*
D10*
X252650000Y-32950000D03*
%TD*%
D11*
%TO.C,SW18*%
X80725000Y-60950000D03*
D12*
X85725000Y-57150000D03*
D11*
X85725000Y-63150000D03*
D10*
X90725000Y-52000000D03*
%TD*%
D11*
%TO.C,SW17*%
X61675000Y-60950000D03*
D12*
X66675000Y-57150000D03*
D11*
X66675000Y-63150000D03*
D10*
X71675000Y-52000000D03*
%TD*%
D11*
%TO.C,SW37*%
X161687500Y-80000000D03*
D12*
X166687500Y-76200000D03*
D11*
X166687500Y-82200000D03*
D10*
X171687500Y-71050000D03*
%TD*%
D11*
%TO.C,SW52*%
X190262500Y-99050000D03*
D12*
X195262500Y-95250000D03*
D11*
X195262500Y-101250000D03*
D10*
X200262500Y-90100000D03*
%TD*%
D11*
%TO.C,SW38*%
X180737500Y-80000000D03*
D12*
X185737500Y-76200000D03*
D11*
X185737500Y-82200000D03*
D10*
X190737500Y-71050000D03*
%TD*%
D11*
%TO.C,SW43*%
X287893750Y-80000000D03*
D12*
X292893750Y-76200000D03*
D11*
X292893750Y-82200000D03*
D10*
X297893750Y-71050000D03*
%TD*%
D11*
%TO.C,SW11*%
X223600000Y-41900000D03*
D12*
X228600000Y-38100000D03*
D11*
X228600000Y-44100000D03*
D10*
X233600000Y-32950000D03*
%TD*%
D11*
%TO.C,SW24*%
X195025000Y-60950000D03*
D12*
X200025000Y-57150000D03*
D11*
X200025000Y-63150000D03*
D10*
X205025000Y-52000000D03*
%TD*%
D11*
%TO.C,SW53*%
X209312500Y-99050000D03*
D12*
X214312500Y-95250000D03*
D11*
X214312500Y-101250000D03*
D10*
X219312500Y-90100000D03*
%TD*%
D11*
%TO.C,SW67*%
X299800000Y-118100000D03*
D12*
X304800000Y-114300000D03*
D11*
X304800000Y-120300000D03*
D10*
X309800000Y-109150000D03*
%TD*%
D11*
%TO.C,SW16*%
X37862500Y-60950000D03*
D12*
X42862500Y-57150000D03*
D11*
X42862500Y-63150000D03*
D10*
X47862500Y-52000000D03*
%TD*%
D11*
%TO.C,SW14*%
X290275000Y-41900000D03*
D12*
X295275000Y-38100000D03*
D11*
X295275000Y-44100000D03*
D10*
X300275000Y-32950000D03*
%TD*%
D11*
%TO.C,SW59*%
X35481250Y-118100000D03*
D12*
X40481250Y-114300000D03*
D11*
X40481250Y-120300000D03*
D10*
X45481250Y-109150000D03*
%TD*%
D11*
%TO.C,SW66*%
X280750000Y-118100000D03*
D12*
X285750000Y-114300000D03*
D11*
X285750000Y-120300000D03*
D10*
X290750000Y-109150000D03*
%TD*%
D11*
%TO.C,SW20*%
X118825000Y-60950000D03*
D12*
X123825000Y-57150000D03*
D11*
X123825000Y-63150000D03*
D10*
X128825000Y-52000000D03*
%TD*%
D11*
%TO.C,SW49*%
X133112500Y-99050000D03*
D12*
X138112500Y-95250000D03*
D11*
X138112500Y-101250000D03*
D10*
X143112500Y-90100000D03*
%TD*%
D11*
%TO.C,SW44*%
X318850000Y-80000000D03*
D12*
X323850000Y-76200000D03*
D11*
X323850000Y-82200000D03*
D10*
X328850000Y-71050000D03*
%TD*%
D11*
%TO.C,SW65*%
X261700000Y-118100000D03*
D12*
X266700000Y-114300000D03*
D11*
X266700000Y-120300000D03*
D10*
X271700000Y-109150000D03*
%TD*%
D11*
%TO.C,SW7*%
X147400000Y-41900000D03*
D12*
X152400000Y-38100000D03*
D11*
X152400000Y-44100000D03*
D10*
X157400000Y-32950000D03*
%TD*%
D11*
%TO.C,SW31*%
X40243750Y-80000000D03*
D12*
X45243750Y-76200000D03*
D11*
X45243750Y-82200000D03*
D10*
X50243750Y-71050000D03*
%TD*%
D11*
%TO.C,SW29*%
X295037500Y-60950000D03*
D12*
X300037500Y-57150000D03*
D11*
X300037500Y-63150000D03*
D10*
X305037500Y-52000000D03*
%TD*%
D11*
%TO.C,SW36*%
X142637500Y-80000000D03*
D12*
X147637500Y-76200000D03*
D11*
X147637500Y-82200000D03*
D10*
X152637500Y-71050000D03*
%TD*%
D11*
%TO.C,SW68*%
X318850000Y-118100000D03*
D12*
X323850000Y-114300000D03*
D11*
X323850000Y-120300000D03*
D10*
X328850000Y-109150000D03*
%TD*%
D11*
%TO.C,SW48*%
X114062500Y-99050000D03*
D12*
X119062500Y-95250000D03*
D11*
X119062500Y-101250000D03*
D10*
X124062500Y-90100000D03*
%TD*%
D11*
%TO.C,SW47*%
X95012500Y-99050000D03*
D12*
X100012500Y-95250000D03*
D11*
X100012500Y-101250000D03*
D10*
X105012500Y-90100000D03*
%TD*%
D11*
%TO.C,SW5*%
X109300000Y-41900000D03*
D12*
X114300000Y-38100000D03*
D11*
X114300000Y-44100000D03*
D10*
X119300000Y-32950000D03*
%TD*%
D11*
%TO.C,SW45*%
X45006250Y-99050000D03*
D12*
X50006250Y-95250000D03*
D11*
X50006250Y-101250000D03*
D10*
X55006250Y-90100000D03*
%TD*%
D11*
%TO.C,SW6*%
X128350000Y-41900000D03*
D12*
X133350000Y-38100000D03*
D11*
X133350000Y-44100000D03*
D10*
X138350000Y-32950000D03*
%TD*%
D11*
%TO.C,SW13*%
X261700000Y-41900000D03*
D12*
X266700000Y-38100000D03*
D11*
X266700000Y-44100000D03*
D10*
X271700000Y-32950000D03*
%TD*%
D11*
%TO.C,SW51*%
X171212500Y-99050000D03*
D12*
X176212500Y-95250000D03*
D11*
X176212500Y-101250000D03*
D10*
X181212500Y-90100000D03*
%TD*%
D11*
%TO.C,SW30*%
X318850000Y-60950000D03*
D12*
X323850000Y-57150000D03*
D11*
X323850000Y-63150000D03*
D10*
X328850000Y-52000000D03*
%TD*%
D11*
%TO.C,SW57*%
X299800000Y-99050000D03*
D12*
X304800000Y-95250000D03*
D11*
X304800000Y-101250000D03*
D10*
X309800000Y-90100000D03*
%TD*%
D11*
%TO.C,SW8*%
X166450000Y-41900000D03*
D12*
X171450000Y-38100000D03*
D11*
X171450000Y-44100000D03*
D10*
X176450000Y-32950000D03*
%TD*%
D11*
%TO.C,SW19*%
X99775000Y-60950000D03*
D12*
X104775000Y-57150000D03*
D11*
X104775000Y-63150000D03*
D10*
X109775000Y-52000000D03*
%TD*%
D11*
%TO.C,SW63*%
X223600000Y-118100000D03*
D12*
X228600000Y-114300000D03*
D11*
X228600000Y-120300000D03*
D10*
X233600000Y-109150000D03*
%TD*%
D11*
%TO.C,SW39*%
X199787500Y-80000000D03*
D12*
X204787500Y-76200000D03*
D11*
X204787500Y-82200000D03*
D10*
X209787500Y-71050000D03*
%TD*%
D11*
%TO.C,SW64*%
X242650000Y-118100000D03*
D12*
X247650000Y-114300000D03*
D11*
X247650000Y-120300000D03*
D10*
X252650000Y-109150000D03*
%TD*%
D11*
%TO.C,SW55*%
X247412500Y-99050000D03*
D12*
X252412500Y-95250000D03*
D11*
X252412500Y-101250000D03*
D10*
X257412500Y-90100000D03*
%TD*%
D11*
%TO.C,SW42*%
X256937500Y-80000000D03*
D12*
X261937500Y-76200000D03*
D11*
X261937500Y-82200000D03*
D10*
X266937500Y-71050000D03*
%TD*%
D11*
%TO.C,SW15*%
X318850000Y-41900000D03*
D12*
X323850000Y-38100000D03*
D11*
X323850000Y-44100000D03*
D10*
X328850000Y-32950000D03*
%TD*%
D11*
%TO.C,SW46*%
X75962500Y-99050000D03*
D12*
X80962500Y-95250000D03*
D11*
X80962500Y-101250000D03*
D10*
X85962500Y-90100000D03*
%TD*%
D11*
%TO.C,SW34*%
X104537500Y-80000000D03*
D12*
X109537500Y-76200000D03*
D11*
X109537500Y-82200000D03*
D10*
X114537500Y-71050000D03*
%TD*%
D11*
%TO.C,SW26*%
X233125000Y-60950000D03*
D12*
X238125000Y-57150000D03*
D11*
X238125000Y-63150000D03*
D10*
X243125000Y-52000000D03*
%TD*%
D11*
%TO.C,SW25*%
X214075000Y-60950000D03*
D12*
X219075000Y-57150000D03*
D11*
X219075000Y-63150000D03*
D10*
X224075000Y-52000000D03*
%TD*%
D11*
%TO.C,SW2*%
X52150000Y-41900000D03*
D12*
X57150000Y-38100000D03*
D11*
X57150000Y-44100000D03*
D10*
X62150000Y-32950000D03*
%TD*%
D11*
%TO.C,SW10*%
X204550000Y-41900000D03*
D12*
X209550000Y-38100000D03*
D11*
X209550000Y-44100000D03*
D10*
X214550000Y-32950000D03*
%TD*%
D11*
%TO.C,SW32*%
X66437500Y-80000000D03*
D12*
X71437500Y-76200000D03*
D11*
X71437500Y-82200000D03*
D10*
X76437500Y-71050000D03*
%TD*%
D11*
%TO.C,SW9*%
X185500000Y-41900000D03*
D12*
X190500000Y-38100000D03*
D11*
X190500000Y-44100000D03*
D10*
X195500000Y-32950000D03*
%TD*%
D11*
%TO.C,SW27*%
X252175000Y-60950000D03*
D12*
X257175000Y-57150000D03*
D11*
X257175000Y-63150000D03*
D10*
X262175000Y-52000000D03*
%TD*%
D11*
%TO.C,SW4*%
X90250000Y-41900000D03*
D12*
X95250000Y-38100000D03*
D11*
X95250000Y-44100000D03*
D10*
X100250000Y-32950000D03*
%TD*%
D11*
%TO.C,SW56*%
X273606250Y-99050000D03*
D12*
X278606250Y-95250000D03*
D11*
X278606250Y-101250000D03*
D10*
X283606250Y-90100000D03*
%TD*%
D11*
%TO.C,SW50*%
X152162500Y-99050000D03*
D12*
X157162500Y-95250000D03*
D11*
X157162500Y-101250000D03*
D10*
X162162500Y-90100000D03*
%TD*%
D11*
%TO.C,SW23*%
X175975000Y-60950000D03*
D12*
X180975000Y-57150000D03*
D11*
X180975000Y-63150000D03*
D10*
X185975000Y-52000000D03*
%TD*%
D15*
%TO.C,A1*%
X26880000Y-29720000D03*
D16*
X29420000Y-29720000D03*
D17*
X31960000Y-29720000D03*
D16*
X34500000Y-29720000D03*
X37040000Y-29720000D03*
X39580000Y-29720000D03*
X42120000Y-29720000D03*
D17*
X44660000Y-29720000D03*
D16*
X47200000Y-29720000D03*
X49740000Y-29720000D03*
X52280000Y-29720000D03*
X54820000Y-29720000D03*
D17*
X57360000Y-29720000D03*
D16*
X59900000Y-29720000D03*
X62440000Y-29720000D03*
X64980000Y-29720000D03*
X67520000Y-29720000D03*
D17*
X70060000Y-29720000D03*
D16*
X72600000Y-29720000D03*
X75140000Y-29720000D03*
X75140000Y-47500000D03*
X72600000Y-47500000D03*
D18*
X70060000Y-47500000D03*
D16*
X67520000Y-47500000D03*
X64980000Y-47500000D03*
X62440000Y-47500000D03*
X59900000Y-47500000D03*
D18*
X57360000Y-47500000D03*
D16*
X54820000Y-47500000D03*
X52280000Y-47500000D03*
X49740000Y-47500000D03*
X47200000Y-47500000D03*
D18*
X44660000Y-47500000D03*
D16*
X42120000Y-47500000D03*
X39580000Y-47500000D03*
X37040000Y-47500000D03*
X34500000Y-47500000D03*
D18*
X31960000Y-47500000D03*
D16*
X29420000Y-47500000D03*
X26880000Y-47500000D03*
%TD*%
D11*
%TO.C,SW41*%
X237887500Y-80000000D03*
D12*
X242887500Y-76200000D03*
D11*
X242887500Y-82200000D03*
D10*
X247887500Y-71050000D03*
%TD*%
D11*
%TO.C,SW22*%
X156925000Y-60950000D03*
D12*
X161925000Y-57150000D03*
D11*
X161925000Y-63150000D03*
D10*
X166925000Y-52000000D03*
%TD*%
D11*
%TO.C,SW54*%
X228362500Y-99050000D03*
D12*
X233362500Y-95250000D03*
D11*
X233362500Y-101250000D03*
D10*
X238362500Y-90100000D03*
%TD*%
M02*
