M48
; DRILL file {KiCad 9.0.2} date 2026-06-07T22:22:29-0400
; FORMAT={-:-/ absolute / metric / decimal}
; #@! TF.CreationDate,2026-06-07T22:22:29-04:00
; #@! TF.GenerationSoftware,Kicad,Pcbnew,9.0.2
; #@! TF.FileFunction,Plated,1,2,PTH
FMAT,2
METRIC
; #@! TA.AperFunction,Plated,PTH,ViaDrill
T1C0.300
; #@! TA.AperFunction,Plated,PTH,ComponentDrill
T2C0.500
; #@! TA.AperFunction,Plated,PTH,ComponentDrill
T3C1.000
; #@! TA.AperFunction,Plated,PTH,ComponentDrill
T4C3.200
%
G90
G05
T1
X28.5Y-36.5
X28.5Y-37.25
X29.25Y-36.5
X29.25Y-37.25
X30.0Y-118.5
X30.621Y-39.75
X33.286Y-58.5
X33.286Y-79.25
X33.286Y-98.5
X34.25Y-34.0
X38.0Y-107.0
X40.183Y-53.401
X42.5Y-69.75
X46.5Y-41.75
X47.306Y-88.75
X48.495Y-34.399
X53.75Y-31.5
X54.0Y-118.25
X54.5Y-64.25
X54.5Y-65.0
X54.5Y-65.75
X54.5Y-103.75
X54.5Y-104.5
X54.75Y-81.5
X54.75Y-82.25
X54.75Y-83.0
X54.75Y-108.5
X54.75Y-109.25
X54.75Y-110.0
X54.75Y-113.0
X54.75Y-113.75
X54.75Y-114.5
X55.25Y-64.25
X55.25Y-65.0
X55.25Y-65.75
X55.25Y-66.5
X55.25Y-103.0
X55.25Y-103.75
X55.25Y-104.5
X55.25Y-105.25
X55.5Y-81.5
X55.5Y-82.25
X55.5Y-83.0
X55.5Y-83.75
X55.5Y-108.5
X55.5Y-109.25
X55.5Y-110.0
X55.5Y-113.0
X55.5Y-113.75
X55.5Y-114.5
X55.5Y-115.25
X56.25Y-61.0
X57.25Y-99.0
X57.5Y-80.0
X60.75Y-89.75
X60.75Y-90.5
X60.75Y-91.25
X60.75Y-107.5
X61.5Y-36.0
X61.5Y-89.75
X61.5Y-90.5
X61.5Y-91.25
X64.25Y-36.0
X65.25Y-36.7
X66.0Y-43.0
X67.5Y-69.5
X70.25Y-32.0
X70.25Y-32.75
X70.25Y-33.5
X70.403Y-50.362
X70.85Y-61.35
X71.0Y-32.75
X71.0Y-33.5
X71.495Y-50.21
X73.0Y-31.0
X73.75Y-55.0
X73.751Y-58.261
X74.875Y-60.375
X77.25Y-88.25
X77.75Y-118.25
X79.5Y-80.0
X82.0Y-108.75
X82.0Y-109.5
X82.0Y-110.25
X82.5Y-112.5
X82.5Y-113.25
X82.5Y-114.0
X82.75Y-108.75
X82.75Y-109.5
X82.75Y-110.25
X83.25Y-112.5
X83.25Y-113.25
X83.25Y-114.0
X83.25Y-114.75
X83.75Y-107.0
X84.75Y-41.75
X86.5Y-69.5
X89.25Y-97.5
X91.75Y-103.25
X92.25Y-89.5
X92.25Y-90.25
X92.25Y-91.0
X93.0Y-89.5
X93.0Y-90.25
X93.0Y-91.0
X94.5Y-61.75
X94.662Y-79.75
X95.0Y-66.8
X96.25Y-88.5
X98.0Y-121.5
X99.25Y-80.75
X99.75Y-108.75
X99.75Y-109.5
X99.75Y-110.25
X100.5Y-108.75
X100.5Y-109.5
X100.5Y-110.25
X102.5Y-25.8
X103.75Y-42.0
X104.047Y-33.703
X105.419Y-69.581
X109.0Y-100.0
X109.25Y-31.0
X109.25Y-31.75
X109.25Y-32.5
X110.0Y-31.0
X110.0Y-31.75
X110.0Y-32.5
X110.25Y-89.5
X110.25Y-90.25
X110.25Y-91.0
X111.0Y-89.5
X111.0Y-90.25
X111.0Y-91.0
X112.0Y-108.75
X112.0Y-109.5
X112.0Y-110.25
X112.75Y-108.75
X112.75Y-109.5
X112.75Y-110.25
X113.5Y-61.25
X115.25Y-88.5
X118.25Y-26.5
X118.5Y-77.5
X120.5Y-123.349
X122.25Y-108.75
X122.25Y-109.5
X122.25Y-110.25
X123.0Y-108.75
X123.0Y-109.5
X123.0Y-110.25
X123.25Y-42.0
X124.75Y-69.5
X126.75Y-123.349
X127.75Y-97.0
X128.25Y-126.0
X128.25Y-126.75
X128.25Y-127.5
X128.5Y-34.3
X128.75Y-89.75
X128.75Y-90.5
X128.75Y-91.25
X129.0Y-126.0
X129.0Y-126.75
X129.0Y-127.5
X129.5Y-89.75
X129.5Y-90.5
X129.5Y-91.25
X132.75Y-61.25
X134.75Y-88.75
X135.5Y-108.75
X135.5Y-109.5
X135.5Y-110.25
X136.25Y-108.75
X136.25Y-109.5
X136.25Y-110.25
X137.5Y-80.5
X140.75Y-29.0
X140.75Y-29.75
X140.75Y-30.5
X141.5Y-29.0
X141.5Y-29.75
X141.5Y-30.5
X142.25Y-25.8
X142.25Y-41.75
X142.5Y-32.25
X143.25Y-108.75
X143.25Y-109.5
X143.25Y-110.25
X143.5Y-29.0
X143.5Y-29.75
X143.5Y-30.5
X143.5Y-69.5
X144.0Y-108.75
X144.0Y-109.5
X144.0Y-110.25
X144.25Y-29.0
X144.25Y-29.75
X144.25Y-30.5
X147.0Y-99.25
X148.25Y-89.5
X148.25Y-90.25
X148.25Y-91.0
X149.0Y-89.5
X149.0Y-90.25
X149.0Y-91.0
X149.25Y-117.0
X151.75Y-61.0
X153.25Y-88.5
X155.75Y-107.5
X156.25Y-80.0
X156.5Y-119.5
X156.5Y-120.25
X156.5Y-121.0
X157.25Y-119.5
X157.25Y-120.25
X157.25Y-121.0
X159.0Y-28.75
X159.0Y-29.5
X159.0Y-30.25
X159.75Y-28.75
X159.75Y-29.5
X159.75Y-30.25
X160.75Y-32.0
X161.0Y-41.75
X161.25Y-25.8
X161.25Y-121.5
X161.75Y-28.75
X161.75Y-29.5
X161.75Y-30.25
X162.5Y-28.75
X162.5Y-29.5
X162.5Y-30.25
X162.5Y-69.5
X165.5Y-99.0
X167.0Y-89.75
X167.0Y-90.5
X167.0Y-91.25
X167.0Y-123.25
X167.75Y-89.75
X167.75Y-90.5
X167.75Y-91.25
X167.75Y-123.25
X168.5Y-123.25
X169.25Y-123.25
X170.0Y-119.5
X170.0Y-120.25
X170.0Y-121.0
X170.0Y-123.25
X170.25Y-108.75
X170.25Y-109.5
X170.25Y-110.25
X170.75Y-60.75
X170.75Y-119.5
X170.75Y-120.25
X170.75Y-121.0
X170.75Y-123.25
X171.0Y-108.75
X171.0Y-109.5
X171.0Y-110.25
X171.5Y-123.25
X171.75Y-88.5
X172.25Y-123.25
X175.25Y-78.5
X180.0Y-41.75
X181.75Y-69.5
X183.5Y-108.75
X183.5Y-109.5
X183.5Y-110.25
X184.25Y-108.75
X184.25Y-109.5
X184.25Y-110.25
X184.75Y-99.0
X186.0Y-89.75
X186.0Y-90.5
X186.0Y-91.25
X186.75Y-89.75
X186.75Y-90.5
X186.75Y-91.25
X189.75Y-61.0
X191.25Y-88.25
X194.5Y-80.0
X194.75Y-126.0
X194.75Y-126.75
X194.75Y-127.5
X195.25Y-26.25
X195.25Y-27.0
X195.25Y-27.75
X195.5Y-126.0
X195.5Y-126.75
X195.5Y-127.5
X196.0Y-26.25
X196.0Y-27.0
X196.0Y-27.75
X197.5Y-123.349
X199.0Y-42.0
X200.75Y-69.5
X200.75Y-112.5
X200.75Y-113.25
X200.75Y-114.0
X201.5Y-112.5
X201.5Y-113.25
X201.5Y-114.0
X202.5Y-123.349
X204.0Y-99.0
X205.5Y-89.75
X205.5Y-90.5
X205.5Y-91.25
X206.25Y-89.75
X206.25Y-90.5
X206.25Y-91.25
X207.5Y-29.25
X207.5Y-30.0
X207.5Y-30.75
X208.0Y-108.5
X208.0Y-109.25
X208.0Y-110.0
X208.25Y-29.25
X208.25Y-30.0
X208.25Y-30.75
X208.75Y-61.0
X208.75Y-108.5
X208.75Y-109.25
X208.75Y-110.0
X210.031Y-88.469
X213.5Y-79.75
X216.25Y-114.75
X216.25Y-115.5
X216.25Y-116.25
X216.25Y-119.75
X216.25Y-120.5
X216.25Y-121.25
X217.0Y-114.75
X217.0Y-115.5
X217.0Y-116.25
X217.0Y-119.75
X217.0Y-120.5
X217.0Y-121.25
X218.0Y-42.0
X218.0Y-126.0
X218.0Y-126.75
X218.0Y-127.5
X218.25Y-30.549
X218.25Y-118.25
X218.75Y-126.0
X218.75Y-126.75
X218.75Y-127.5
X219.25Y-26.25
X219.75Y-69.45
X222.0Y-109.0
X222.0Y-109.75
X222.0Y-110.5
X222.75Y-99.0
X222.75Y-109.0
X222.75Y-109.75
X222.75Y-110.5
X224.5Y-89.75
X224.5Y-90.5
X224.5Y-91.25
X224.75Y-107.75
X225.25Y-89.75
X225.25Y-90.5
X225.25Y-91.25
X227.75Y-61.0
X229.25Y-88.5
X232.5Y-80.0
X234.25Y-120.75
X234.25Y-121.5
X235.0Y-120.75
X235.0Y-121.5
X236.0Y-108.75
X236.0Y-109.5
X236.0Y-110.25
X236.75Y-108.75
X236.75Y-109.5
X236.75Y-110.25
X237.0Y-118.0
X237.25Y-30.549
X237.25Y-42.0
X238.0Y-26.5
X238.75Y-69.5
X242.0Y-99.25
X243.5Y-89.75
X243.5Y-90.5
X243.5Y-91.25
X243.75Y-107.5
X244.25Y-89.75
X244.25Y-90.5
X244.25Y-91.25
X244.5Y-120.0
X244.5Y-120.75
X244.5Y-121.5
X245.25Y-120.0
X245.25Y-120.75
X245.25Y-121.5
X246.75Y-61.0
X248.5Y-88.25
X251.5Y-80.0
X253.5Y-120.75
X253.5Y-121.5
X254.25Y-120.75
X254.25Y-121.5
X255.5Y-27.5
X255.5Y-30.549
X255.75Y-42.0
X255.75Y-118.25
X256.75Y-108.75
X256.75Y-109.5
X256.75Y-110.25
X257.5Y-108.75
X257.5Y-109.5
X257.5Y-110.25
X257.75Y-69.5
X262.75Y-107.75
X265.5Y-89.75
X265.5Y-90.5
X265.5Y-91.25
X265.75Y-60.75
X266.25Y-89.75
X266.25Y-90.5
X266.25Y-91.25
X268.25Y-99.0
X274.75Y-88.5
X275.25Y-117.5
X279.0Y-108.75
X279.0Y-109.5
X279.0Y-110.25
X279.75Y-108.75
X279.75Y-109.5
X279.75Y-110.25
X281.5Y-107.5
X281.875Y-79.625
X284.25Y-28.25
X284.25Y-42.0
X284.5Y-30.549
X288.25Y-89.75
X288.25Y-90.5
X288.25Y-91.25
X288.847Y-69.653
X289.0Y-89.75
X289.0Y-90.5
X289.0Y-91.25
X289.5Y-60.75
X294.25Y-99.25
X294.5Y-117.5
X295.5Y-89.75
X295.5Y-90.5
X295.5Y-91.25
X295.75Y-50.25
X296.25Y-89.75
X296.25Y-90.5
X296.25Y-91.25
X297.25Y-108.75
X297.25Y-109.5
X297.25Y-110.25
X298.0Y-108.75
X298.0Y-109.5
X298.0Y-110.25
X300.5Y-107.5
X301.5Y-88.25
X313.25Y-41.9
X313.25Y-117.5
X313.5Y-61.25
X313.5Y-79.75
X313.5Y-99.5
X315.25Y-89.75
X315.25Y-90.5
X315.25Y-91.25
X316.0Y-89.75
X316.0Y-90.5
X316.0Y-91.25
X316.5Y-108.75
X316.5Y-109.5
X316.5Y-110.25
X317.25Y-108.75
X317.25Y-109.5
X317.25Y-110.25
X319.75Y-88.5
X319.75Y-107.5
X320.0Y-50.5
X320.0Y-69.5
X326.5Y-87.0
X326.75Y-50.25
X326.75Y-69.25
X326.75Y-88.25
X327.5Y-68.3
X327.75Y-31.25
X329.25Y-106.0
X330.5Y-118.75
X330.5Y-119.5
X330.5Y-120.25
X331.25Y-118.75
X331.25Y-119.5
X331.25Y-120.25
X331.75Y-108.75
X331.75Y-109.5
X331.75Y-110.25
X332.5Y-108.75
X332.5Y-109.5
X332.5Y-110.25
T2
X26.297Y-126.25
X26.35Y-55.0
X27.0Y-124.553
X27.0Y-127.947
X27.053Y-53.303
X27.053Y-56.697
X28.697Y-123.85
X28.697Y-128.65
X28.75Y-52.6
X28.75Y-57.4
X30.394Y-124.553
X30.394Y-127.947
X30.447Y-53.303
X30.447Y-56.697
X31.097Y-126.25
X31.15Y-55.0
X121.35Y-28.5
X121.35Y-126.25
X122.053Y-26.803
X122.053Y-30.197
X122.053Y-124.553
X122.053Y-127.947
X123.75Y-26.1
X123.75Y-30.9
X123.75Y-123.85
X123.75Y-128.65
X125.447Y-26.803
X125.447Y-30.197
X125.447Y-124.553
X125.447Y-127.947
X126.15Y-28.5
X126.15Y-126.25
X197.6Y-28.5
X197.6Y-126.25
X198.303Y-26.803
X198.303Y-30.197
X198.303Y-124.553
X198.303Y-127.947
X200.0Y-26.1
X200.0Y-30.9
X200.0Y-123.85
X200.0Y-128.65
X201.697Y-26.803
X201.697Y-30.197
X201.697Y-124.553
X201.697Y-127.947
X202.4Y-28.5
X202.4Y-126.25
X333.6Y-28.5
X333.6Y-126.25
X334.303Y-26.803
X334.303Y-30.197
X334.303Y-124.553
X334.303Y-127.947
X336.0Y-26.1
X336.0Y-30.9
X336.0Y-123.85
X336.0Y-128.65
X337.697Y-26.803
X337.697Y-30.197
X337.697Y-124.553
X337.697Y-127.947
X338.4Y-28.5
X338.4Y-126.25
T3
X26.88Y-29.72
X26.88Y-47.5
X29.42Y-29.72
X29.42Y-47.5
X31.96Y-29.72
X31.96Y-47.5
X34.5Y-29.72
X34.5Y-47.5
X37.04Y-29.72
X37.04Y-47.5
X39.58Y-29.72
X39.58Y-47.5
X42.12Y-29.72
X42.12Y-47.5
X44.66Y-29.72
X44.66Y-47.5
X47.2Y-29.72
X47.2Y-47.5
X49.74Y-29.72
X49.74Y-47.5
X52.28Y-29.72
X52.28Y-47.5
X54.82Y-29.72
X54.82Y-47.5
X57.36Y-29.72
X57.36Y-47.5
X59.9Y-29.72
X59.9Y-47.5
X62.44Y-29.72
X62.44Y-47.5
X64.98Y-29.72
X64.98Y-47.5
X67.52Y-29.72
X67.52Y-47.5
X70.06Y-29.72
X70.06Y-47.5
X72.6Y-29.72
X72.6Y-47.5
X75.14Y-29.72
X75.14Y-47.5
T4
X28.697Y-126.25
X28.75Y-55.0
X123.75Y-28.5
X123.75Y-126.25
X200.0Y-28.5
X200.0Y-126.25
X336.0Y-28.5
X336.0Y-126.25
M30
